HIERARCHY
ROOT Hips
{
	OFFSET 55.310501 45.591206 43.872097
	CHANNELS 6 Xposition Yposition Zposition Zrotation Xrotation Yrotation
	JOINT Chest
	{
		OFFSET -0.153500 1.163101 7.852402
		CHANNELS 6 Xposition Yposition Zposition Zrotation Xrotation Yrotation
		JOINT Chest2
		{
			OFFSET 0.000000 0.000000 3.343300
			CHANNELS 6 Xposition Yposition Zposition Zrotation Xrotation Yrotation
			JOINT Neck
			{
				OFFSET 0.000000 0.000000 7.785500
				CHANNELS 6 Xposition Yposition Zposition Zrotation Xrotation Yrotation
				JOINT Head
				{
					OFFSET 0.000000 0.000000 2.173901
					CHANNELS 6 Xposition Yposition Zposition Zrotation Xrotation Yrotation
					End Site
					{
						OFFSET 0.000000 0.000000 10.528198
					}
				}
			}
			JOINT LeftCollar
			{
				OFFSET 2.676300 -1.652401 4.938301
				CHANNELS 6 Xposition Yposition Zposition Zrotation Xrotation Yrotation
				JOINT LeftShoulder
				{
					OFFSET 4.299000 0.000000 0.000000
					CHANNELS 6 Xposition Yposition Zposition Zrotation Xrotation Yrotation
					JOINT LeftElbow
					{
						OFFSET 0.000000 0.000000 -10.245102
						CHANNELS 6 Xposition Yposition Zposition Zrotation Xrotation Yrotation
						JOINT LeftWrist
						{
							OFFSET 0.000000 0.000000 -12.703300
							CHANNELS 6 Xposition Yposition Zposition Zrotation Xrotation Yrotation
							End Site
							{
								OFFSET 0.000000 0.000000 -2.173901
							}
						}
					}
				}
			}
			JOINT RightCollar
			{
				OFFSET -2.534599 -1.686401 5.195000
				CHANNELS 6 Xposition Yposition Zposition Zrotation Xrotation Yrotation
				JOINT RightShoulder
				{
					OFFSET -4.144100 0.000000 0.000000
					CHANNELS 6 Xposition Yposition Zposition Zrotation Xrotation Yrotation
					JOINT RightElbow
					{
						OFFSET 0.000000 0.000000 -10.116501
						CHANNELS 6 Xposition Yposition Zposition Zrotation Xrotation Yrotation
						JOINT RightWrist
						{
							OFFSET 0.000000 0.000000 -12.937801
							CHANNELS 6 Xposition Yposition Zposition Zrotation Xrotation Yrotation
							End Site
							{
								OFFSET 0.000000 0.000000 -2.173901
							}
						}
					}
				}
			}
		}
	}
	JOINT LeftHip
	{
		OFFSET 2.175598 0.064499 -2.662899
		CHANNELS 6 Xposition Yposition Zposition Zrotation Xrotation Yrotation
		JOINT LeftKnee
		{
			OFFSET 0.000000 -0.000004 -18.585800
			CHANNELS 6 Xposition Yposition Zposition Zrotation Xrotation Yrotation
			JOINT LeftAnkle
			{
				OFFSET 0.000000 0.000000 -18.979500
				CHANNELS 6 Xposition Yposition Zposition Zrotation Xrotation Yrotation
				End Site
				{
					OFFSET 0.000000 -9.264000 0.000000
				}
			}
		}
	}
	JOINT RightHip
	{
		OFFSET -2.092400 -0.058102 -2.581200
		CHANNELS 6 Xposition Yposition Zposition Zrotation Xrotation Yrotation
		JOINT RightKnee
		{
			OFFSET 0.000000 -0.000004 -18.665001
			CHANNELS 6 Xposition Yposition Zposition Zrotation Xrotation Yrotation
			JOINT RightAnkle
			{
				OFFSET 0.000000 0.000000 -18.566601
				CHANNELS 6 Xposition Yposition Zposition Zrotation Xrotation Yrotation
				End Site
				{
					OFFSET 0.000000 -8.497601 0.000000
				}
			}
		}
	}
}
MOTION
Frames: 10
Frame Time: 0.041667
34.006409 63.305904 42.983288 -6.110916 1.578888 16.954203 -0.153504 1.163101 7.852401 -23.125769 7.570620 -4.187087 -0.000004 0.000004 3.343301 5.026680 -2.821523 0.103093 -0.000002 -0.000010 7.785497 44.396370 -2.448224 -33.057928 -0.000002 0.000001 2.173914 4.487811 5.763801 4.044532 2.676297 -1.652405 4.938295 -7.243824 4.131775 -5.930094 4.298993 0.000010 -0.000015 -11.683705 7.193874 -55.454511 -0.000010 0.000005 -10.245100 400.113274 -7.235286 363.020648 -0.000000 0.000015 -12.703304 -53.941265 2.719146 14.428583 -2.534599 -1.686412 5.195000 -7.800302 -0.673191 -0.122597 -4.144106 0.000003 -0.000001 12.641352 -16.078685 107.040566 -0.000001 0.000014 -10.116495 -105.772378 -33.705870 -132.369121 -0.000002 0.000000 -12.937806 63.625336 -11.459836 30.229365 2.175599 0.064488 -2.662903 -214.721053 -33.662820 51.172563 -0.000006 0.000004 -18.585804 166.141169 -193.155687 -192.709881 -0.000010 0.000016 -18.979504 216.909418 60.415209 60.080557 -2.092401 -0.058114 -2.581204 -7.148137 -3.311920 -12.707819 0.000005 -0.000011 -18.665003 -197.466411 161.356840 167.752274 0.000013 -0.000001 -18.566601 26.830327 21.496994 13.441368
33.996605 63.320404 42.985493 -6.225949 1.517778 17.023941 -0.153495 1.163101 7.852397 -22.944603 7.623954 -4.194955 0.000002 0.000000 3.343299 5.029588 -2.819209 0.103235 0.000004 -0.000006 7.785512 44.311849 -2.460963 -33.037287 0.000002 0.000005 2.173900 4.525783 5.762129 4.026601 2.676299 -1.652400 4.938310 -7.235135 4.114664 -6.044488 4.299001 0.000002 0.000000 -11.765612 7.201577 -55.396181 0.000007 -0.000001 -10.245098 400.133136 -7.256817 363.012861 0.000003 0.000010 -12.703305 -53.883048 2.734263 14.312961 -2.534597 -1.686404 5.195009 -7.885925 -0.758355 -0.129871 -4.144109 0.000001 0.000007 12.744876 -16.110581 107.011504 0.000002 0.000003 -10.116503 -105.224467 -33.487390 -132.056325 0.000006 0.000000 -12.937803 63.982282 -11.461434 30.446661 2.175599 0.064491 -2.662907 -219.241518 -37.084201 48.551543 -0.000005 0.000008 -18.585800 168.041396 -192.865882 -192.726819 -0.000009 0.000006 -18.979506 220.176271 60.634854 58.475121 -2.092399 -0.058108 -2.581203 -7.052833 -3.324213 -12.799858 0.000004 -0.000011 -18.665005 -197.568495 161.290642 167.810685 0.000005 -0.000006 -18.566605 26.917311 21.528802 13.499749
33.982796 63.336899 42.988895 -6.374309 1.454220 17.125511 -0.153500 1.163100 7.852398 -22.727724 7.679225 -4.226726 0.000002 0.000003 3.343308 5.037778 -2.819328 0.103247 0.000004 -0.000004 7.785502 44.223750 -2.482001 -33.026806 -0.000011 0.000006 2.173904 4.569096 5.757169 3.990671 2.676298 -1.652400 4.938297 -7.251271 4.128872 -6.118516 4.298985 0.000007 -0.000006 -11.846002 7.215828 -55.398158 -0.000003 0.000003 -10.245099 400.181958 -7.257386 363.003217 0.000004 0.000005 -12.703301 -53.829260 2.744542 14.217827 -2.534600 -1.686397 5.194996 -7.954581 -0.807918 -0.161552 -4.144104 0.000000 -0.000003 12.769596 -16.110782 106.974580 -0.000002 0.000006 -10.116501 -104.878108 -33.313667 -131.832801 -0.000001 0.000004 -12.937797 64.276629 -11.483016 30.588456 2.175592 0.064495 -2.662897 -225.915542 -41.339385 44.323669 -0.000001 -0.000000 -18.585796 170.580204 -192.461685 -192.694485 -0.000008 0.000007 -18.979500 224.551239 61.113766 55.277274 -2.092402 -0.058113 -2.581207 -6.911392 -3.338867 -12.937527 0.000003 -0.000008 -18.665005 -197.644774 161.244210 167.868578 0.000009 0.000001 -18.566607 26.952645 21.566191 13.583379
33.970398 63.352600 42.991894 -6.484173 1.393367 17.205332 -0.153495 1.163093 7.852404 -22.556826 7.731532 -4.229117 0.000006 0.000003 3.343308 5.049256 -2.820373 0.103104 -0.000002 -0.000017 7.785502 44.136915 -2.513417 -33.026068 0.000002 -0.000010 2.173901 4.617490 5.748520 3.939796 2.676293 -1.652411 4.938303 -7.286047 4.168065 -6.170881 4.298990 0.000005 -0.000002 -11.915069 7.228773 -55.434758 -0.000011 -0.000002 -10.245108 400.247637 -7.245186 362.993081 0.000000 0.000012 -12.703298 -53.785612 2.749008 14.151207 -2.534599 -1.686414 5.194997 -7.994263 -0.821722 -0.214754 -4.144099 -0.000002 0.000001 12.740617 -16.111627 106.948140 0.000010 0.000010 -10.116503 -104.535390 -33.113498 -131.565795 0.000001 0.000002 -12.937802 64.645336 -11.576237 30.681247 2.175602 0.064491 -2.662895 -232.300307 -44.608331 39.949319 -0.000006 0.000003 -18.585800 172.712330 -192.098947 -192.614449 -0.000012 0.000007 -18.979507 229.131195 60.871903 54.510702 -2.092392 -0.058108 -2.581188 -6.797228 -3.339927 -13.045239 -0.000000 -0.000010 -18.665005 -197.685127 161.214294 167.904396 0.000009 -0.000003 -18.566601 26.939142 21.614538 13.708326
33.961205 63.366104 42.993690 -6.601272 1.330709 17.271074 -0.153495 1.163101 7.852396 -22.383775 7.767256 -4.234899 0.000006 0.000007 3.343302 5.051346 -2.817200 0.102725 0.000002 -0.000010 7.785500 44.062968 -2.530731 -33.023244 0.000001 0.000002 2.173906 4.668191 5.733461 3.874585 2.676296 -1.652409 4.938293 -7.334247 4.225605 -6.186382 4.298997 0.000006 -0.000014 -11.953748 7.237286 -55.489372 0.000002 0.000003 -10.245101 400.313726 -7.231407 362.983273 -0.000007 0.000004 -12.703297 -53.755802 2.747101 14.116253 -2.534601 -1.686406 5.194998 -7.980784 -0.796310 -0.254305 -4.144108 0.000001 -0.000011 12.623486 -16.124728 106.915963 -0.000006 0.000010 -10.116497 -104.259033 -32.898692 -131.323350 -0.000000 -0.000006 -12.937807 65.032403 -11.724423 30.715733 2.175601 0.064499 -2.662910 -238.358958 -47.098290 35.541023 0.000000 0.000000 -18.585800 174.500828 -191.777164 -192.487257 -0.000003 0.000000 -18.979506 233.085943 60.671983 53.908825 -2.092395 -0.058101 -2.581206 -6.668072 -3.335550 -13.132277 -0.000000 -0.000001 -18.665005 -197.714456 161.195989 167.927495 0.000014 0.000010 -18.566603 26.901257 21.679360 13.888872
33.953102 63.378506 42.995895 -6.684556 1.279869 17.162252 -0.153500 1.163101 7.852401 -22.268812 7.736287 -4.083276 -0.000002 0.000014 3.343302 5.046836 -2.816620 0.102352 -0.000002 -0.000002 7.785508 44.012687 -2.556160 -33.037594 -0.000004 0.000001 2.173905 4.693105 5.707797 3.810356 2.676296 -1.652401 4.938308 -7.403426 4.310200 -6.187557 4.299006 0.000006 -0.000003 -11.941644 7.213877 -55.549273 -0.000003 -0.000001 -10.245107 400.361592 -7.225147 362.975841 -0.000008 0.000007 -12.703304 -53.742609 2.740566 14.113213 -2.534599 -1.686402 5.195004 -7.929323 -0.742413 -0.304406 -4.144098 -0.000002 -0.000001 12.430771 -16.135907 106.885562 -0.000004 -0.000001 -10.116499 -104.156990 -32.729669 -131.190339 0.000005 0.000002 -12.937812 65.319080 -11.888019 30.691305 2.175600 0.064494 -2.662903 -243.015344 -48.487926 31.978785 -0.000008 0.000003 -18.585800 175.685894 -191.552286 -192.348482 -0.000003 -0.000005 -18.979504 234.809719 61.469271 50.894246 -2.092396 -0.058110 -2.581201 -6.570340 -3.347417 -13.037894 -0.000001 -0.000019 -18.665009 -197.745055 161.179747 167.944024 0.000008 0.000009 -18.566603 26.871998 21.753242 14.099568
33.947903 63.388508 42.996590 -6.707304 1.220721 17.180979 -0.153503 1.163102 7.852407 -22.198098 7.780806 -4.046975 -0.000003 0.000003 3.343305 5.038523 -2.817740 0.101939 0.000006 -0.000008 7.785500 43.984994 -2.586812 -33.063812 -0.000002 0.000008 2.173911 4.691749 5.675251 3.751095 2.676297 -1.652400 4.938295 -7.488924 4.411314 -6.200449 4.299000 0.000013 -0.000000 -11.870771 7.145437 -55.582966 -0.000004 0.000002 -10.245106 400.370881 -7.230394 362.971962 -0.000007 0.000018 -12.703300 -53.757373 2.732269 14.164200 -2.534598 -1.686402 5.194992 -7.855361 -0.678198 -0.357625 -4.144110 0.000003 -0.000010 12.205125 -16.157837 106.870556 0.000000 0.000006 -10.116508 -104.295493 -32.644452 -131.276031 -0.000001 0.000000 -12.937798 65.390954 -11.975595 30.621842 2.175598 0.064495 -2.662899 -245.343400 -49.148358 30.159779 -0.000005 -0.000010 -18.585796 176.164649 -191.450448 -192.226057 -0.000008 0.000008 -18.979504 236.084778 61.616257 50.218238 -2.092397 -0.058107 -2.581199 -6.544885 -3.312423 -13.055007 0.000003 -0.000012 -18.665005 -197.757718 161.163504 167.946470 0.000005 0.000004 -18.566605 26.837557 21.838620 14.348414
33.945808 63.396900 42.995792 -6.702281 1.160162 17.172463 -0.153491 1.163089 7.852403 -22.153418 7.822931 -3.989515 0.000001 0.000009 3.343299 5.021928 -2.816721 0.101631 0.000002 0.000000 7.785506 43.974151 -2.615920 -33.094855 -0.000002 0.000002 2.173904 4.673379 5.640229 3.736808 2.676295 -1.652397 4.938296 -7.586137 4.521849 -6.225485 4.299005 0.000000 -0.000012 -11.755188 7.043763 -55.586958 -0.000003 -0.000004 -10.245103 400.350391 -7.250976 362.970978 0.000002 0.000005 -12.703300 -53.787750 2.722681 14.240089 -2.534598 -1.686401 5.194999 -7.782464 -0.627327 -0.411816 -4.144106 0.000005 -0.000009 12.037736 -16.198863 106.901674 -0.000000 0.000001 -10.116505 -104.281546 -32.499471 -131.296358 -0.000006 0.000002 -12.937798 65.529545 -12.060903 30.594750 2.175602 0.064478 -2.662897 -245.363180 -49.136538 30.066315 -0.000005 -0.000005 -18.585800 176.018469 -191.463180 -192.133658 -0.000004 0.000000 -18.979504 236.194553 61.711039 50.121270 -2.092393 -0.058114 -2.581202 -6.559526 -3.269491 -13.033898 0.000003 -0.000012 -18.665003 -197.787894 161.136225 167.950527 0.000007 0.000004 -18.566605 26.846791 21.927484 14.594258
33.945000 63.404900 42.993797 -6.700927 1.099946 17.158335 -0.153502 1.163105 7.852409 -22.093119 7.856276 -3.938707 0.000009 -0.000003 3.343300 4.994154 -2.810863 0.101254 -0.000010 -0.000004 7.785503 43.972386 -2.632584 -33.126254 -0.000000 0.000003 2.173913 4.638561 5.600120 3.767430 2.676293 -1.652407 4.938303 -7.698154 4.642719 -6.250837 4.299000 -0.000000 -0.000009 -11.606780 6.915290 -55.574439 -0.000006 -0.000012 -10.245100 400.308180 -7.280136 362.971607 0.000001 0.000005 -12.703298 -53.833721 2.715471 14.345137 -2.534600 -1.686402 5.195004 -7.722190 -0.598378 -0.455207 -4.144105 -0.000003 -0.000004 11.870606 -16.198904 106.923961 -0.000005 0.000010 -10.116503 -104.581343 -32.501356 -131.562530 0.000011 0.000004 -12.937795 65.365996 -12.039446 30.543254 2.175589 0.064494 -2.662897 -245.198628 -49.075944 30.106180 -0.000007 -0.000007 -18.585804 175.852537 -191.483875 -192.046177 -0.000007 0.000003 -18.979504 236.178625 61.794900 50.085425 -2.092396 -0.058106 -2.581194 -6.583847 -3.228769 -13.007432 -0.000000 -0.000005 -18.665003 -197.834995 161.101609 167.964255 0.000001 0.000002 -18.566601 26.897825 22.010988 14.805413
33.944607 63.413303 42.990891 -6.667640 1.048257 16.960891 -0.153499 1.163102 7.852406 -22.074285 7.818878 -3.715140 0.000007 0.000013 3.343311 4.958503 -2.801265 0.100875 0.000002 -0.000011 7.785497 43.978690 -2.660451 -33.173853 0.000004 -0.000006 2.173908 4.574517 5.561364 3.851837 2.676291 -1.652416 4.938296 -7.816644 4.769198 -6.297969 4.298997 -0.000000 -0.000006 -11.441014 6.750555 -55.542368 -0.000004 0.000004 -10.245105 400.235425 -7.310456 362.972481 -0.000005 0.000012 -12.703301 -53.892136 2.713431 14.474013 -2.534595 -1.686413 5.194995 -7.689646 -0.601478 -0.501866 -4.144107 0.000010 -0.000005 11.755822 -16.163906 106.946911 0.000005 0.000005 -10.116503 -105.033727 -32.613720 -131.941892 -0.000001 0.000000 -12.937798 65.004153 -11.946950 30.508215 2.175592 0.064489 -2.662897 -244.424685 -48.659774 30.578829 -0.000004 -0.000001 -18.585800 175.524633 -191.538544 -191.984801 0.000001 -0.000005 -18.979504 235.766000 61.842104 50.253042 -2.092402 -0.058107 -2.581205 -6.641267 -3.207390 -12.797857 -0.000002 -0.000004 -18.665001 -197.890524 161.065259 167.981427 0.000008 -0.000007 -18.566603 26.986195 22.081930 14.948643
